<?xml version="1.0" standalone="no"?>
<!DOCTYPE svg PUBLIC "-//W3C//DTD SVG 20010904//EN"
 "http://www.w3.org/TR/2001/REC-SVG-20010904/DTD/svg10.dtd">
<svg version="1.0" xmlns="http://www.w3.org/2000/svg"
 width="612.000000pt" height="408.000000pt" viewBox="0 0 612.000000 408.000000"
 preserveAspectRatio="xMidYMid meet">
<metadata>
Created by potrace 1.16, written by Peter Selinger 2001-2019
</metadata>
<g transform="translate(0.000000,408.000000) scale(0.100000,-0.100000)"
fill="#000000" stroke="none">
<path d="M3431 4015 c-2 -5 -2 -61 -1 -122 2 -110 1 -113 -20 -113 -12 0 -30
-5 -42 -11 -16 -9 -19 -17 -14 -44 5 -26 3 -36 -11 -45 -17 -11 -17 -11 0 -6
15 5 17 -3 17 -64 l0 -70 -30 0 c-24 0 -30 -4 -30 -21 0 -11 -5 -30 -11 -41
-9 -16 -8 -19 2 -16 7 2 17 19 21 37 7 25 13 32 30 29 19 -3 22 -11 26 -63 2
-33 7 -98 12 -145 7 -69 7 -60 3 49 -4 82 -2 132 4 128 5 -3 15 -2 23 4 12 7
10 9 -7 9 -17 0 -23 6 -24 23 0 12 -3 50 -5 84 -5 57 -3 65 20 90 16 17 29 24
35 18 13 -15 20 -284 7 -289 -7 -3 -7 -8 2 -14 8 -6 11 -24 8 -55 -2 -27 0
-47 6 -47 5 0 8 -8 7 -17 -2 -17 7 -142 15 -209 4 -30 2 -32 -37 -40 l-42 -8
42 -4 42 -3 5 -62 c4 -34 8 -100 11 -147 3 -47 9 -123 14 -170 5 -47 15 -134
21 -195 6 -60 13 -114 16 -120 6 -13 -15 253 -31 410 -17 152 -22 280 -13 286
19 12 735 95 743 87 3 -3 0 -17 -6 -32 -7 -14 -10 -28 -7 -31 8 -8 38 6 38 17
0 6 -7 7 -16 4 -15 -6 -15 -4 -2 16 18 27 41 37 32 14 -10 -25 21 -19 33 7 10
20 12 20 18 4 7 -17 8 -17 20 0 10 14 32 19 90 23 l76 5 -6 -40 c-4 -22 -16
-53 -27 -69 -11 -16 -16 -26 -9 -22 21 13 11 -13 -11 -28 -12 -9 -19 -18 -16
-21 3 -4 17 5 31 19 17 17 21 28 14 35 -7 7 -2 13 14 21 21 10 24 16 21 55 -5
53 -8 52 118 59 52 4 124 8 160 10 290 19 1215 27 1293 11 9 -2 17 3 17 9 0
16 -391 30 -615 22 -83 -3 -258 -8 -390 -12 -132 -3 -260 -7 -285 -9 -418 -31
-452 -31 -462 4 -4 14 -3 30 4 38 6 7 7 13 2 13 -5 0 -19 -18 -31 -39 -17 -29
-19 -41 -10 -45 6 -3 2 -3 -10 0 -13 3 -23 1 -23 -5 0 -6 -15 -11 -33 -11 -18
0 -130 -11 -247 -25 -118 -14 -276 -32 -350 -40 -74 -8 -145 -17 -157 -20 -25
-6 -26 -1 -48 340 -3 44 -8 114 -11 155 -5 59 -4 73 6 63 16 -15 40 -6 40 16
-1 14 -2 14 -11 -2 -15 -25 -32 -11 -18 16 10 21 10 21 -5 3 -15 -18 -16 -15
-16 45 1 53 3 61 13 48 7 -10 23 -15 40 -13 24 2 27 -1 27 -27 0 -23 -4 -29
-22 -30 -22 0 -22 -1 -3 -8 11 -5 22 -4 23 0 2 5 7 7 11 4 5 -2 6 7 3 20 -3
19 0 25 12 25 10 0 14 -4 11 -10 -3 -5 -1 -10 4 -10 17 0 13 -14 -13 -53 -13
-19 -22 -38 -19 -41 3 -3 -6 -8 -20 -11 -15 -4 -31 -13 -38 -21 -9 -11 -6 -11
17 1 16 8 35 15 43 15 7 0 11 6 8 14 -4 10 -1 13 9 9 9 -3 14 1 14 14 0 10 7
28 15 41 11 15 13 27 7 39 -5 10 -7 23 -5 30 3 7 -13 11 -48 11 -82 1 -92 17
-100 159 -3 65 -7 114 -8 108z"/>
<path d="M2220 3157 c0 -30 -4 -47 -12 -47 -9 0 -9 -3 0 -12 19 -19 14 -48
-10 -59 l-23 -10 23 5 c19 4 22 0 22 -32 1 -21 3 -62 6 -92 l6 -55 -59 -16
c-32 -9 -105 -29 -163 -44 -133 -34 -393 -115 -534 -166 -60 -22 -115 -38
-122 -35 -16 6 -111 -41 -117 -59 -10 -25 24 -25 64 1 23 14 75 36 117 50 43
13 86 28 97 33 35 16 87 31 107 31 11 0 34 7 51 15 57 26 119 44 134 38 7 -3
23 3 35 13 l21 19 -5 -52 c-4 -45 -3 -50 8 -35 7 9 14 30 14 45 0 33 20 57 47
57 10 0 28 7 39 15 12 8 23 12 26 10 2 -3 36 4 74 15 82 24 104 25 104 6 0 -8
5 -18 10 -21 7 -4 9 2 4 19 -6 25 -5 26 19 15 32 -14 37 -43 39 -199 1 -63 6
-123 12 -132 8 -13 8 -23 -1 -37 -6 -10 -9 -28 -6 -39 2 -11 0 -23 -6 -26 -6
-4 -11 -12 -11 -19 0 -6 6 -2 14 9 19 25 25 17 31 -42 5 -49 5 -49 -9 -19
l-15 30 -1 -45 c0 -29 8 -57 22 -80 23 -37 25 -48 57 -235 26 -157 37 -214 55
-305 24 -122 25 -130 10 -130 -8 0 -14 4 -14 8 0 4 -14 16 -30 25 -24 14 -29
23 -24 41 3 14 -2 36 -15 57 -12 19 -21 46 -21 60 0 30 -17 47 -57 58 -20 5
-29 15 -34 39 -3 17 -20 44 -38 59 -17 15 -31 36 -31 46 0 10 -9 31 -19 46
-11 15 -23 39 -26 54 -4 15 -20 36 -36 48 -16 11 -29 29 -29 38 0 10 -7 24
-15 31 -20 16 -19 29 3 37 9 4 20 11 23 16 12 18 39 -2 39 -29 0 -21 4 -25 20
-21 17 4 20 0 20 -23 0 -16 4 -32 10 -35 6 -4 7 6 4 24 -4 18 -2 37 5 45 9 11
5 17 -21 30 -31 15 -32 16 -10 22 12 4 22 10 22 15 0 5 -7 6 -16 2 -16 -6 -37
15 -28 29 3 4 14 8 25 8 10 0 19 5 19 10 0 6 -6 10 -14 10 -32 0 -46 -13 -46
-41 0 -42 -18 -36 -25 9 -9 52 -13 61 -14 30 -1 -23 -5 -28 -27 -28 -26 0 -26
-2 -22 -45 l5 -44 -28 14 c-15 8 -38 15 -51 16 l-23 0 23 11 c30 15 26 52 -5
56 -20 3 -23 9 -23 49 0 26 6 54 14 62 7 9 20 36 29 61 31 92 30 87 15 63 -12
-21 -16 -23 -37 -23 -11 0 -20 -49 -27 -147 -6 -70 -5 -73 17 -82 13 -5 17
-10 9 -11 -57 -3 -40 -60 18 -60 25 0 42 -9 68 -35 19 -20 34 -41 34 -48 0 -8
11 -20 25 -27 13 -7 29 -28 36 -47 6 -18 17 -39 24 -47 8 -8 16 -26 19 -41 3
-14 21 -44 40 -66 42 -46 48 -82 14 -77 -15 2 -24 -3 -26 -15 -4 -19 15 -19
76 -1 25 7 56 -12 48 -31 -2 -7 0 -17 6 -23 8 -8 6 -13 -8 -18 -10 -4 -32 -17
-49 -29 -16 -12 -56 -32 -87 -44 -32 -13 -58 -27 -58 -32 0 -5 -6 -9 -14 -9
-7 0 -19 -7 -26 -15 -28 -33 5 -27 96 18 52 27 98 46 103 42 5 -3 16 1 24 9 8
8 18 12 21 8 4 -3 4 1 0 11 -3 9 -2 17 3 17 15 0 36 -47 29 -66 -4 -11 5 -26
31 -49 l38 -33 -25 -6 c-26 -7 -136 -31 -205 -46 -54 -11 -99 -29 -92 -36 5
-5 84 11 265 56 l72 18 20 -25 c11 -14 20 -34 20 -45 0 -11 12 -70 26 -131 15
-62 31 -130 35 -152 5 -22 12 -50 14 -62 17 -73 122 -423 170 -563 31 -91 57
-172 58 -180 1 -8 4 -17 7 -20 7 -7 31 -72 33 -90 1 -9 -6 -15 -18 -15 -11 0
-23 -4 -26 -8 -4 -5 -30 -9 -60 -9 -39 1 -50 -2 -39 -9 12 -8 10 -10 -7 -6
-13 3 -43 -1 -68 -8 -27 -9 -47 -10 -50 -4 -4 5 -15 9 -26 9 -11 0 -17 -4 -14
-10 3 -6 -4 -10 -17 -9 -13 0 -18 3 -12 5 20 8 3 44 -20 44 -19 -1 -19 -2 -4
-13 10 -8 13 -18 9 -26 -9 -14 -83 -18 -118 -7 -28 9 -30 36 -3 36 11 0 20 6
20 13 0 6 9 1 20 -13 l20 -25 20 25 c11 14 20 35 20 47 0 12 5 23 12 25 9 3 9
6 0 12 -7 4 -16 -3 -24 -18 -14 -32 -44 -34 -54 -3 l-8 22 -7 -25 c-4 -15 -7
-18 -8 -8 -1 9 -12 26 -26 36 -29 23 -17 39 15 22 11 -6 20 -7 20 -3 0 4 5 2
12 -5 7 -7 19 -12 28 -12 13 0 15 7 12 29 -3 22 0 30 15 33 10 2 23 -3 30 -12
11 -13 12 -11 13 13 0 28 -24 39 -33 15 -3 -10 -9 -10 -27 0 -12 7 -25 11 -28
8 -3 -3 0 -6 6 -6 7 0 12 -7 12 -15 0 -10 -10 -15 -34 -15 -44 0 -53 13 -21
30 14 7 25 20 25 29 0 13 -2 13 -9 2 -11 -16 -23 1 -16 21 9 23 -20 42 -44 28
-24 -12 -27 -26 -8 -33 10 -4 10 -7 0 -18 -11 -11 -13 -10 -13 4 0 19 -44 24
-55 7 -10 -15 -25 -12 -25 6 0 21 24 44 47 44 15 1 14 3 -6 14 -17 9 -20 15
-11 21 6 4 17 2 23 -4 19 -19 26 -13 25 21 0 56 -7 70 -35 66 -34 -4 -42 19
-11 31 21 9 21 10 3 12 -11 1 -29 2 -40 1 -13 0 -8 5 13 14 34 15 87 10 62 -6
-8 -5 -8 -9 4 -13 9 -4 16 -13 16 -21 0 -24 20 -29 36 -10 14 18 15 18 10 -6
-2 -14 -7 -36 -10 -50 l-7 -25 11 24 c6 13 17 29 26 35 21 16 9 66 -16 66 -10
0 -20 -5 -22 -12 -3 -8 -9 -8 -24 0 -13 8 -14 11 -5 12 13 0 13 2 0 13 -8 6
-12 11 -10 10 2 -2 10 2 18 9 8 6 41 12 74 12 34 1 63 7 67 14 10 15 149 44
176 37 17 -5 18 -4 6 4 -10 7 -11 11 -3 11 7 0 10 7 7 15 -4 8 -11 12 -18 8
-19 -13 -99 -32 -133 -33 -19 0 -44 -10 -62 -26 -26 -22 -32 -23 -37 -10 -3 9
-10 13 -15 10 -5 -3 -9 0 -9 5 0 6 -7 11 -15 11 -8 0 -15 -5 -15 -11 0 -5 -8
-9 -17 -7 -10 1 -23 -1 -30 -5 -18 -11 -63 3 -57 18 3 7 1 16 -5 20 -7 4 -11
-4 -11 -19 0 -14 6 -26 13 -27 6 0 1 -6 -13 -12 -14 -7 -32 -16 -40 -22 -8 -5
-23 -10 -33 -10 -17 -2 -16 1 4 16 13 10 32 19 42 19 9 0 17 4 17 10 0 5 -15
9 -32 8 -68 -2 -68 -2 -69 55 0 28 -3 46 -6 40 -6 -16 -30 -17 -35 -1 -3 7
-11 9 -24 4 -16 -7 -16 -9 -4 -15 20 -8 24 -31 5 -31 -8 0 -15 -5 -15 -12 0
-6 -3 -9 -6 -5 -4 3 -13 0 -20 -8 -8 -8 -22 -11 -31 -8 -11 4 -13 8 -5 11 14
4 16 42 2 42 -5 0 -6 8 -3 17 5 12 8 13 11 4 3 -9 9 -8 22 4 10 9 30 17 45 19
15 2 31 9 36 17 14 22 11 33 -6 19 -11 -9 -15 -9 -15 -1 0 7 -16 0 -35 -14
-19 -15 -38 -24 -43 -21 -5 3 -19 -4 -31 -15 -14 -13 -28 -18 -41 -14 -29 9
-25 -4 5 -15 19 -7 26 -19 31 -49 6 -37 18 -50 64 -64 9 -3 2 -8 -17 -12 -20
-5 -33 -14 -33 -23 0 -8 -8 -21 -17 -28 -15 -11 -16 -13 -3 -17 55 -18 56 -19
37 -26 -17 -6 -16 -8 7 -19 16 -7 26 -20 26 -32 0 -11 5 -20 11 -20 6 0 9 -6
6 -14 -3 -7 0 -22 7 -32 8 -11 17 -34 21 -51 3 -18 14 -37 22 -42 10 -5 14
-15 10 -25 -9 -24 -51 -17 -55 9 -2 11 -6 27 -9 35 -3 8 -5 18 -5 22 2 8 -38
90 -48 98 -3 3 -11 17 -17 33 -7 15 -20 27 -29 27 -14 0 -15 2 -3 17 10 12 11
17 2 20 -7 2 -9 11 -6 20 5 13 2 15 -15 11 -20 -6 -22 -2 -22 34 0 27 -4 38
-12 35 -13 -4 -15 -8 -17 -52 0 -14 -6 -25 -12 -25 -8 0 -10 14 -6 40 3 23 1
43 -5 46 -7 4 -4 10 6 16 17 10 22 48 6 48 -5 0 -10 -7 -10 -16 0 -9 -7 -14
-17 -12 -23 4 -24 44 -2 40 9 -1 19 4 22 12 7 18 -22 29 -56 21 -13 -4 -69 -2
-123 4 -83 9 -112 18 -183 52 l-85 42 -103 -52 -103 -51 0 -56 c0 -55 1 -56
18 -41 22 20 32 21 32 5 0 -6 7 -20 17 -30 9 -10 16 -31 15 -48 0 -18 6 -35
17 -42 10 -7 21 -26 24 -43 3 -16 8 -40 12 -51 9 -28 -44 -85 -72 -78 -14 4
-33 -9 -67 -46 -53 -56 -57 -86 -16 -107 20 -10 27 -9 42 4 17 15 19 15 36 0
21 -19 40 -21 61 -8 21 13 -4 69 -34 77 -20 5 -21 8 -11 30 7 14 20 24 33 24
12 0 25 4 28 10 3 5 21 10 40 10 26 0 35 -5 40 -22 4 -13 21 -53 38 -91 24
-52 35 -67 52 -67 24 0 65 -49 65 -77 0 -19 48 -65 60 -58 4 3 10 -10 14 -27
5 -24 1 -37 -15 -54 l-22 -23 299 0 c165 1 288 4 274 9 l-25 7 30 5 c30 5 30
5 6 13 -23 8 -24 9 -5 16 10 4 32 8 47 8 24 1 28 -3 25 -21 -3 -23 20 -35 75
-37 25 -1 27 2 27 38 0 22 -5 41 -12 44 -7 3 0 10 15 16 16 6 33 8 38 5 6 -3
16 -1 23 5 8 7 47 18 87 26 41 8 90 19 109 25 83 25 244 50 254 40 13 -13 76
-181 71 -190 -2 -3 5 -7 16 -7 23 -2 23 0 4 36 -8 16 -11 31 -8 35 4 3 1 6 -5
6 -6 0 -14 15 -17 32 -4 18 -12 39 -17 45 -6 7 -8 20 -4 28 3 9 2 14 -3 11 -5
-3 -11 0 -14 8 -4 9 5 16 26 20 18 3 60 12 95 20 53 11 61 12 51 0 -8 -10 -9
-18 0 -27 6 -8 9 -17 6 -20 -3 -4 -2 -4 3 -1 4 3 8 10 8 15 1 5 2 12 3 16 1
10 45 -56 55 -81 5 -16 4 -17 -9 -6 -8 7 -15 19 -15 27 0 8 -4 12 -9 9 -5 -4
-11 -3 -14 1 -2 5 -2 1 1 -7 14 -48 14 -50 -4 -50 -15 0 -16 -2 -5 -9 8 -5 20
-7 26 -5 7 3 15 -1 18 -9 5 -14 -5 -39 -17 -38 -3 1 -6 -2 -6 -6 1 -5 12 -6
27 -5 15 2 23 0 19 -6 -12 -19 6 -42 31 -40 20 2 24 7 20 25 -5 25 3 29 21 11
9 -9 12 -8 12 6 0 32 -31 86 -51 86 -10 0 -21 5 -25 12 -4 7 -3 8 4 4 8 -5 12
0 12 13 0 23 -15 28 -23 9 -3 -7 -6 0 -6 15 -1 16 -5 26 -10 22 -15 -9 -30 27
-20 50 4 11 8 16 8 12 1 -4 10 -3 21 3 19 10 21 8 19 -12 -4 -39 0 -58 12 -58
7 0 9 9 6 21 -9 34 9 69 35 69 13 0 66 9 118 19 90 19 349 62 453 77 26 3 47
10 47 15 0 8 -20 6 -160 -17 -47 -7 -103 -16 -125 -19 -40 -6 -212 -36 -317
-57 -31 -6 -64 -8 -73 -4 -9 3 -13 2 -10 -4 9 -14 -19 -12 -33 2 -7 7 -12 18
-12 25 0 16 32 17 48 1 9 -9 12 -8 12 4 0 23 -20 34 -57 32 -30 -2 -33 1 -33
24 0 15 4 44 9 65 5 21 6 50 2 65 -10 37 -3 59 20 65 16 4 19 11 13 34 -8 35
-7 33 -33 38 -12 2 -19 0 -16 -6 4 -5 10 -7 15 -4 9 5 22 -34 14 -46 -2 -5
-11 -6 -19 -3 -8 4 -13 10 -10 14 3 5 1 11 -5 15 -6 3 -10 18 -9 33 1 15 -2
36 -6 46 -7 15 -5 18 6 12 9 -5 8 -3 -2 6 -29 24 -56 100 -30 84 5 -4 7 2 4
13 -4 14 2 19 26 23 17 2 36 0 42 -6 9 -8 10 -8 6 0 -8 14 52 27 86 19 29 -8
60 21 38 35 -14 8 -12 79 3 113 5 10 4 17 -3 17 -6 0 -15 -10 -20 -23 -21 -56
-29 -87 -20 -81 5 3 9 -3 9 -14 0 -15 -11 -21 -54 -28 l-54 -10 -6 38 c-3 21
-10 38 -14 38 -5 0 -7 -13 -4 -28 6 -44 -25 -37 -34 7 -4 20 -9 41 -10 46 -2
6 -6 21 -10 34 -6 19 -4 22 7 16 8 -5 11 -4 6 1 -5 5 -14 9 -20 9 -7 0 -11 8
-11 18 1 9 -2 14 -7 11 -14 -8 -11 20 4 35 10 11 9 12 -1 7 -10 -6 -12 3 -9
42 2 31 -1 48 -7 45 -5 -4 -7 1 -3 11 4 10 3 15 -3 11 -8 -5 -45 61 -42 76 1
4 -20 18 -47 32 -26 14 -56 36 -67 48 -26 28 -92 62 -129 64 -16 2 -52 14 -79
29 -26 14 -52 23 -57 20 -5 -3 -9 0 -9 6 0 6 -4 9 -9 5 -9 -5 -27 33 -19 39 3
4 159 37 291 62 78 15 127 12 98 -5 -8 -5 -14 -28 -15 -54 -1 -37 2 -44 14
-37 8 4 28 6 43 3 25 -5 32 -14 28 -36 -2 -10 16 -1 42 21 27 24 21 37 -32 65
-58 32 -70 54 -38 66 24 10 120 26 387 66 96 14 192 28 214 31 25 4 41 2 46
-6 6 -9 13 -7 29 9 28 28 27 45 -1 28 -18 -11 -212 -41 -333 -52 -11 -1 -29
-4 -40 -8 -11 -3 -45 -8 -75 -12 -30 -3 -98 -14 -150 -24 -56 -11 -99 -15
-106 -10 -6 5 -15 4 -21 -2 -10 -10 -95 -30 -283 -65 -46 -8 -89 -16 -94 -17
-11 -2 -16 18 -56 231 -26 136 -29 167 -18 180 8 10 9 13 1 9 -16 -10 -20 -1
-28 67 l-8 59 29 -7 c27 -6 28 -5 11 8 -11 8 -25 12 -32 10 -19 -8 -27 89 -10
122 8 16 12 45 9 75 -5 46 -3 50 22 59 18 7 30 7 39 0 12 -10 25 -4 25 13 0 5
-6 7 -14 4 -19 -8 -28 18 -16 48 6 16 5 35 -1 55 -9 25 -16 30 -44 30 -46 0
-65 9 -65 30 0 24 29 34 49 17 19 -16 51 -11 51 8 0 27 -39 44 -77 33 -19 -5
-37 -7 -40 -4 -3 3 -6 50 -8 104 -1 55 -6 105 -10 112 -4 6 -3 15 1 19 8 7 75
28 113 36 9 2 62 13 119 25 100 21 104 21 118 3 7 -10 14 -22 14 -26 0 -5 5
-5 11 -2 7 5 5 15 -5 30 -15 23 -15 23 57 39 210 45 658 126 698 126 18 0 29
5 29 14 0 15 -5 14 -360 -49 -256 -45 -271 -48 -465 -90 -33 -7 -105 -22 -160
-34 -55 -12 -115 -26 -133 -32 -18 -6 -35 -9 -38 -6 -3 2 -7 78 -11 168 -3 90
-7 166 -9 168 -2 2 -4 -17 -4 -42z m323 -1728 c18 -10 42 -19 53 -19 34 0 89
-27 120 -58 16 -15 44 -34 63 -42 31 -12 32 -14 15 -27 -9 -7 -16 -14 -13 -16
2 -1 13 -9 23 -17 11 -8 17 -10 13 -3 -4 6 -3 14 2 17 5 4 24 -23 41 -58 31
-63 34 -99 8 -94 -17 4 -23 -55 -9 -79 9 -16 10 -15 11 6 l0 24 21 -26 c11
-15 22 -36 24 -47 2 -11 6 -24 9 -28 7 -12 17 -72 12 -72 -2 0 -12 25 -21 55
-10 30 -22 55 -27 55 -5 0 -6 -5 -3 -11 10 -15 13 -59 5 -59 -4 0 -4 -18 0
-40 4 -22 5 -40 3 -40 -3 0 5 -9 18 -20 13 -10 18 -19 12 -20 -7 0 -13 5 -13
10 0 6 -4 10 -9 10 -4 0 -6 -11 -4 -24 3 -13 0 -33 -6 -45 -10 -18 -9 -20 5
-14 11 4 15 2 11 -4 -4 -6 -2 -13 4 -15 6 -2 14 -27 17 -56 2 -29 9 -55 15
-59 5 -3 -1 -14 -14 -25 -13 -11 -19 -17 -12 -14 6 4 14 2 18 -4 4 -6 11 -8
16 -5 5 4 10 -9 10 -27 1 -18 3 -44 4 -58 2 -14 -2 -34 -8 -45 -6 -11 -11 -22
-10 -25 1 -3 3 -21 4 -40 2 -19 12 -41 21 -48 10 -7 16 -18 13 -23 -4 -5 -1
-9 4 -9 15 0 14 11 -5 31 -15 17 -15 18 5 16 19 -1 25 -9 22 -29 0 -5 4 -8 9
-8 6 0 10 -4 10 -9 0 -6 -8 -10 -17 -9 -23 0 -62 -8 -138 -27 -75 -18 -72 -18
-78 2 -3 10 -24 70 -47 133 -74 206 -129 370 -133 398 -3 15 -10 38 -15 52 -9
22 -41 125 -48 155 -1 6 -7 30 -14 55 -7 25 -14 52 -16 60 -2 8 -12 49 -22 90
-22 88 -62 256 -62 264 0 8 72 -15 103 -35z"/>
<path d="M4842 2928 c-2 -43 -7 -63 -22 -78 -37 -37 -22 -130 28 -172 40 -32
142 10 142 59 0 24 -25 13 -42 -17 -20 -36 -61 -41 -78 -10 -6 11 -15 18 -19
15 -5 -2 -12 11 -15 30 -8 40 1 65 15 44 6 -10 9 -4 9 18 0 26 5 34 24 39 25
6 66 -10 66 -26 0 -6 7 -10 15 -10 21 0 19 13 -8 38 -16 15 -36 22 -65 22
l-41 0 -4 53 -3 52 -2 -57z"/>
<path d="M5132 2873 c-5 -10 -17 -45 -26 -78 -10 -33 -22 -72 -26 -87 -8 -24
-6 -28 9 -28 13 0 20 10 25 30 5 28 9 30 48 30 37 0 45 -4 60 -31 18 -31 45
-32 30 -1 -5 9 -26 54 -47 100 -38 82 -56 98 -73 65z"/>
<path d="M4385 2851 c-4 -3 -1 -35 11 -158 7 -65 26 -70 40 -11 7 34 15 45 38
53 24 8 31 6 47 -14 10 -13 19 -34 19 -47 0 -17 6 -24 20 -24 17 0 19 5 13 33
-3 17 -10 40 -14 49 -5 9 -5 27 0 41 6 16 5 32 -3 48 -10 22 -20 25 -90 29
-43 3 -79 3 -81 1z"/>
<path d="M4170 2832 c-37 -6 -52 -22 -46 -51 3 -14 8 -56 11 -93 l7 -68 32 0
c62 0 126 13 126 25 0 8 -20 12 -62 11 -61 -1 -63 0 -66 26 -3 25 0 27 45 33
65 9 75 13 67 26 -4 7 -25 9 -59 4 -47 -5 -53 -4 -58 14 -7 28 9 39 71 47 31
4 51 11 49 17 -3 11 -67 15 -117 9z"/>
<path d="M3975 2798 c-2 -7 -11 -39 -20 -71 -9 -32 -21 -57 -27 -55 -6 2 -19
26 -30 53 -24 61 -36 76 -57 73 -25 -4 -26 -10 -23 -113 3 -92 4 -96 25 -93
19 3 22 9 19 40 -4 53 16 58 35 8 23 -58 52 -53 71 13 15 54 31 62 34 15 2
-58 3 -61 15 -65 21 -7 25 18 18 113 -7 91 -8 94 -31 94 -14 0 -27 -6 -29 -12z"/>
<path d="M3614 2771 c3 -4 -8 -51 -24 -102 -35 -110 -34 -109 -15 -109 8 0 21
16 29 35 14 32 19 35 54 35 34 0 41 -4 46 -25 4 -16 13 -25 26 -25 11 0 20 2
20 5 0 3 -20 48 -44 100 -40 85 -48 95 -71 95 -14 0 -24 -4 -21 -9z"/>
<path d="M3250 2710 c0 -34 -4 -41 -25 -46 -36 -9 -52 1 -60 35 -5 22 -12 31
-26 31 -18 0 -19 -5 -15 -52 11 -122 18 -148 37 -148 16 0 19 8 19 49 0 48 0
48 37 54 46 8 53 3 53 -37 0 -39 5 -45 30 -39 14 4 18 12 15 32 -5 26 -13 110
-14 144 -1 11 -9 17 -26 17 -22 0 -25 -4 -25 -40z"/>
<path d="M2579 2702 c-1 -4 -2 -11 -3 -17 -3 -26 -24 -42 -60 -48 -41 -7 -76
-31 -76 -54 0 -7 -11 -18 -24 -25 -14 -6 -28 -18 -31 -26 -5 -12 -1 -12 15 3
11 10 22 16 24 14 12 -14 12 -101 0 -118 -9 -13 -11 -22 -4 -26 6 -3 13 1 16
9 9 25 26 19 19 -6 -5 -19 -4 -20 5 -6 7 12 19 15 43 11 41 -6 92 32 102 77 3
16 13 34 21 41 19 15 19 63 0 56 -17 -7 -46 23 -46 46 0 9 8 25 18 35 24 26
24 38 1 39 -10 1 -20 -1 -20 -5z"/>
<path d="M2787 2682 c-15 -3 -17 -11 -12 -55 3 -29 8 -64 11 -79 11 -54 -35
-90 -67 -52 -7 9 -15 48 -18 87 -5 62 -9 72 -26 75 -19 3 -20 -3 -20 -77 0
-43 3 -77 6 -75 3 2 12 -8 19 -21 28 -52 118 -39 140 21 8 19 -4 176 -13 180
-1 0 -10 -1 -20 -4z"/>
<path d="M747 2633 c-4 -3 -7 -15 -7 -25 0 -10 -4 -18 -10 -18 -5 0 -10 -13
-10 -30 0 -19 -5 -30 -14 -30 -19 0 -28 -25 -33 -95 -2 -33 -10 -69 -17 -80
-7 -11 -21 -62 -31 -113 -16 -86 -16 -95 -1 -135 9 -23 16 -67 16 -97 0 -30 4
-71 10 -90 5 -19 11 -90 13 -157 3 -123 14 -160 44 -149 7 3 13 1 13 -4 0 -6
-4 -10 -9 -10 -5 0 -13 -25 -17 -57 -5 -46 -4 -58 10 -68 9 -7 16 -17 16 -24
0 -6 5 -11 11 -11 5 0 8 -4 4 -9 -3 -5 0 -13 6 -16 5 -4 8 -13 5 -21 -5 -14 4
-22 76 -68 l36 -24 45 22 c24 13 71 39 103 59 l60 36 12 94 c17 125 59 206
157 302 63 63 70 73 56 85 -13 13 -14 12 -8 -2 4 -11 2 -15 -6 -12 -7 2 -13
28 -14 62 -4 75 -22 184 -34 202 -8 13 -11 12 -24 -4 -16 -21 -35 -14 -35 14
0 10 -4 21 -9 25 -5 3 -12 19 -16 35 -8 35 -24 40 -26 8 -1 -17 -2 -19 -6 -5
-8 29 -21 19 -28 -23 -7 -43 -35 -57 -35 -17 0 12 -3 32 -6 45 -5 19 -2 22 20
22 14 0 25 5 24 12 -2 8 36 37 59 44 2 0 6 15 9 32 6 31 6 32 -29 32 -20 0
-39 -4 -42 -10 -3 -5 -16 -9 -28 -8 -12 0 -29 -2 -38 -6 -24 -10 -32 9 -11 26
34 29 123 78 142 78 10 0 22 -4 25 -10 14 -23 25 -7 25 35 0 25 -4 45 -9 45
-8 0 -51 -16 -116 -45 -48 -21 -157 -55 -177 -55 -10 0 -18 -4 -18 -10 0 -5
-5 -10 -11 -10 -6 0 -1 13 11 29 12 18 16 32 10 36 -5 3 -10 17 -10 31 0 21
-4 24 -39 24 -36 0 -39 2 -45 35 -4 20 -11 33 -17 30 -5 -4 -9 -3 -8 2 7 38
-7 64 -24 46z"/>
<path d="M3680 1293 c0 -15 5 -55 10 -88 10 -58 40 -264 40 -273 0 -5 -123 7
-129 14 -4 4 28 8 57 7 6 -1 12 6 12 14 0 9 -6 12 -18 9 -10 -4 -40 -7 -65 -8
-48 -2 -62 -14 -29 -24 9 -4 32 -13 50 -21 37 -16 76 -19 110 -9 19 6 23 4 21
-11 -1 -10 0 -25 3 -33 3 -8 13 -62 23 -120 9 -58 28 -167 41 -243 14 -77 24
-140 22 -141 -2 -2 -19 -7 -38 -13 l-35 -11 41 -1 41 -1 32 -170 c18 -93 37
-170 42 -170 5 0 7 10 4 23 -18 82 -55 285 -55 304 0 13 6 23 14 23 7 0 28 3
45 6 27 6 31 4 31 -15 0 -11 5 -21 10 -21 6 0 10 7 10 15 0 19 37 38 63 31 11
-3 27 -1 36 3 9 5 113 16 231 25 118 9 235 19 259 22 l44 6 -6 -44 c-6 -44
-40 -136 -65 -176 -16 -25 -37 -30 -28 -7 3 9 0 15 -9 15 -21 0 -19 -14 4 -34
19 -17 20 -16 46 22 27 42 75 170 75 203 0 14 7 19 28 19 72 1 228 13 240 20
8 4 -10 5 -40 4 -211 -13 -218 -13 -218 13 0 36 16 59 50 73 19 8 33 22 37 39
3 14 13 36 21 49 8 12 13 24 11 25 -2 1 -13 7 -24 13 -24 13 -32 53 -14 65 10
6 10 11 1 22 -7 7 -9 16 -7 19 3 3 1 17 -4 30 -7 18 -6 29 2 37 8 8 7 11 -6
11 -11 0 -17 -8 -17 -25 0 -14 -5 -25 -10 -25 -7 0 -7 -6 0 -20 6 -11 12 -51
15 -91 2 -39 9 -77 15 -84 15 -18 3 -38 -40 -67 -22 -15 -38 -36 -44 -58 -5
-19 -10 -36 -11 -38 -1 -1 -89 -9 -196 -17 -107 -9 -234 -19 -284 -24 -49 -5
-92 -7 -94 -5 -2 2 4 13 14 24 30 33 8 35 -26 2 -31 -30 -42 -35 -126 -47 -39
-6 -41 -5 -47 22 -3 15 -19 105 -36 198 -16 94 -34 193 -39 220 -5 28 -7 52
-5 55 3 2 37 -13 77 -33 73 -38 122 -50 95 -24 -7 7 -33 22 -58 32 -25 11 -45
26 -46 33 -3 36 -5 42 -15 42 -6 0 -8 -9 -4 -21 5 -16 3 -20 -10 -17 -19 3
-43 34 -34 42 3 3 26 9 51 12 l45 6 7 -41 c3 -22 12 -42 19 -42 23 -2 42 3 49
14 12 18 10 89 -2 82 -5 -3 -10 -24 -10 -46 0 -32 -3 -39 -20 -39 -16 0 -20 7
-20 31 0 19 7 37 18 45 15 12 12 14 -28 13 -25 -1 -57 2 -71 6 -18 5 -31 2
-42 -9 -18 -19 -15 -30 -43 148 -8 55 -17 103 -19 107 -3 3 -5 30 -6 58 -2 53
-19 84 -19 34z"/>
<path d="M4029 963 c-8 -2 -21 -23 -27 -46 -7 -23 -16 -49 -19 -57 -4 -12 -3
-13 8 -2 19 17 46 15 58 -5 10 -17 10 -17 11 0 0 10 -7 34 -15 54 -18 43 -18
43 -1 43 24 0 76 -59 77 -88 1 -26 1 -26 10 5 15 51 29 50 29 -2 0 -41 -2 -46
-19 -40 -14 4 -23 0 -31 -14 -8 -16 -7 -22 10 -31 25 -13 26 -27 3 -33 -12 -3
-9 -5 8 -6 16 -1 29 5 33 15 8 22 9 21 -19 28 -34 9 -32 25 4 24 20 -1 31 -8
39 -27 12 -28 13 -34 -5 97 -6 46 -26 62 -81 62 -45 0 -10 19 43 23 36 2 29 4
-25 4 -41 0 -82 -1 -91 -4z"/>
<path d="M4502 366 c-7 -18 -12 -46 -12 -62 0 -16 -12 -46 -26 -67 -14 -21
-26 -48 -27 -60 -1 -12 -14 -39 -29 -61 -20 -28 -26 -45 -21 -64 4 -17 2 -23
-6 -18 -6 4 -11 18 -11 32 0 13 -4 24 -8 24 -13 0 -6 -84 7 -88 6 -2 11 1 11
7 0 6 11 11 25 11 22 0 25 4 25 33 0 21 8 41 20 52 27 25 26 3 -4 -57 -13 -27
-21 -48 -19 -48 3 0 18 10 35 21 24 18 32 19 38 8 17 -26 21 -1 6 30 -9 16
-16 45 -16 64 0 19 -7 40 -15 47 -20 17 -19 24 9 68 15 23 26 56 28 86 3 45 6
50 31 53 28 4 36 -10 15 -24 -7 -4 -13 -20 -13 -35 -1 -14 3 -24 7 -22 4 3 8
15 8 26 0 11 8 27 18 34 21 16 9 29 -34 37 -27 5 -32 3 -42 -27z"/>
<path d="M1335 114 c-10 -8 -27 -14 -37 -14 -10 0 -18 -3 -18 -8 0 -4 -10 -12
-22 -17 -16 -7 -24 -20 -26 -42 l-3 -33 50 0 c27 0 51 4 53 8 2 4 21 15 43 23
31 11 41 21 43 40 2 14 -4 31 -12 39 -9 7 -16 9 -16 6 0 -4 -8 -2 -18 3 -12 6
-23 5 -37 -5z"/>
</g>
</svg>
